<?xml version="1.0" encoding="UTF-8"?>
<svg id="Layer_1" data-name="Layer 1" xmlns="http://www.w3.org/2000/svg" width="460" height="125.11" viewBox="0 0 460 125.11">
  <rect y=".77" width="460" height="124.34" rx="4.14" ry="4.14" style="fill: #106839;"/>
  <g style="fill: none; opacity: .96;">
    <path d="m56.64,24.76h11.97v66.11h-11.97v-5.04c-2.34,2.22-4.68,3.82-7.03,4.8-2.35.98-4.9,1.47-7.64,1.47-6.16,0-11.49-2.39-15.98-7.17s-6.74-10.72-6.74-17.82,2.18-13.4,6.52-18.11c4.35-4.71,9.63-7.06,15.85-7.06,2.86,0,5.55.54,8.06,1.62,2.51,1.08,4.83,2.7,6.96,4.87v-23.67Zm-12.58,28.23c-3.7,0-6.77,1.31-9.22,3.92-2.45,2.62-3.67,5.97-3.67,10.06s1.24,7.51,3.74,10.17c2.49,2.66,5.56,3.99,9.2,3.99s6.87-1.31,9.35-3.92c2.48-2.62,3.71-6.04,3.71-10.28s-1.24-7.51-3.71-10.08c-2.48-2.57-5.61-3.86-9.39-3.86Z" style="fill: #fff;"/>
    <path d="m77.03,23.54c2.1,0,3.9.76,5.4,2.28,1.5,1.52,2.25,3.36,2.25,5.52s-.74,3.95-2.23,5.46-3.26,2.26-5.33,2.26-3.94-.77-5.44-2.3c-1.5-1.53-2.25-3.4-2.25-5.59s.74-3.9,2.23-5.39,3.28-2.24,5.38-2.24Zm-5.98,19.64h11.97v47.7h-11.97v-47.7Z" style="fill: #fff;"/>
    <path d="m120.78,43.18h11.92v40.86c0,8.07-1.62,14-4.87,17.8-4.35,5.14-10.92,7.72-19.68,7.72-4.68,0-8.61-.59-11.79-1.75-3.19-1.17-5.87-2.89-8.07-5.15-2.19-2.27-3.81-5.02-4.87-8.26h13.2c1.17,1.34,2.67,2.36,4.52,3.05,1.84.69,4.02,1.03,6.53,1.03,3.21,0,5.8-.5,7.76-1.49s3.34-2.28,4.14-3.86c.8-1.58,1.2-4.3,1.2-8.15-2.1,2.1-4.31,3.62-6.62,4.54-2.31.92-4.92,1.38-7.85,1.38-6.4,0-11.81-2.31-16.22-6.93-4.41-4.62-6.62-10.46-6.62-17.54,0-7.57,2.34-13.65,7.01-18.24,4.24-4.15,9.29-6.23,15.17-6.23,2.75,0,5.34.5,7.78,1.51,2.44,1.01,4.89,2.67,7.34,4.98v-5.26Zm-12.41,9.95c-3.77,0-6.88,1.26-9.34,3.79-2.46,2.53-3.68,5.71-3.68,9.54s1.26,7.23,3.77,9.78c2.51,2.54,5.67,3.81,9.47,3.81s6.77-1.24,9.18-3.73,3.62-5.74,3.62-9.78-1.21-7.2-3.64-9.69c-2.43-2.48-5.55-3.73-9.38-3.73Z" style="fill: #fff;"/>
    <path d="m141.12,23.54c2.1,0,3.9.76,5.4,2.28,1.5,1.52,2.25,3.36,2.25,5.52s-.74,3.95-2.23,5.46-3.26,2.26-5.33,2.26-3.94-.77-5.44-2.3c-1.5-1.53-2.25-3.4-2.25-5.59s.74-3.9,2.23-5.39,3.28-2.24,5.38-2.24Zm-5.98,19.64h11.97v47.7h-11.97v-47.7Z" style="fill: #fff;"/>
  </g>
  <g style="fill: none; opacity: .96;">
    <path d="m152.28,89.69V26.73h5.84v25.34c2.45-3.01,5.19-5.25,8.22-6.74,3.03-1.49,6.35-2.23,9.97-2.23,6.42,0,11.91,2.33,16.45,6.99,4.55,4.66,6.82,10.32,6.82,16.97s-2.29,12.18-6.88,16.82c-4.59,4.65-10.11,6.97-16.56,6.97-3.7,0-7.05-.79-10.05-2.38-3-1.59-5.66-3.97-7.97-7.14v8.35h-5.84Zm23.38-4.47c3.25,0,6.25-.8,9-2.4,2.75-1.6,4.94-3.85,6.56-6.74,1.62-2.89,2.44-5.96,2.44-9.18s-.82-6.3-2.46-9.23-3.84-5.2-6.6-6.83-5.71-2.44-8.85-2.44-6.23.81-9.1,2.44-5.08,3.82-6.62,6.58c-1.54,2.76-2.31,5.86-2.31,9.31,0,5.26,1.73,9.66,5.19,13.19,3.46,3.54,7.71,5.3,12.77,5.3Z" style="fill: #d6df1c;"/>
    <path d="m246.67,44.27v45.42h-5.76v-7.81c-2.45,2.98-5.2,5.22-8.25,6.72s-6.38,2.25-10,2.25c-6.43,0-11.92-2.33-16.47-6.99-4.55-4.66-6.83-10.33-6.83-17.01s2.3-12.13,6.89-16.78c4.59-4.65,10.12-6.97,16.57-6.97,3.73,0,7.1.79,10.12,2.38,3.02,1.59,5.67,3.97,7.95,7.14v-8.35h5.76Zm-23.36,4.47c-3.25,0-6.25.8-9.01,2.4-2.75,1.6-4.94,3.84-6.57,6.73-1.63,2.89-2.44,5.95-2.44,9.17s.82,6.26,2.46,9.17c1.64,2.92,3.84,5.19,6.61,6.82,2.77,1.63,5.73,2.44,8.9,2.44s6.23-.81,9.09-2.42,5.07-3.79,6.61-6.55c1.54-2.75,2.31-5.85,2.31-9.3,0-5.25-1.73-9.65-5.19-13.18-3.46-3.53-7.72-5.3-12.78-5.3Z" style="fill: #d6df1c;"/>
    <path d="m251.02,44.27h5.84v8.14c2.34-3.12,4.93-5.45,7.77-6.99s5.93-2.32,9.27-2.32,6.41.86,9.04,2.59c2.63,1.73,4.57,4.05,5.82,6.97s1.88,7.47,1.88,13.65v23.38h-5.84v-21.67c0-5.23-.22-8.73-.65-10.48-.68-3.01-1.98-5.27-3.9-6.78-1.92-1.52-4.43-2.28-7.52-2.28-3.54,0-6.7,1.17-9.5,3.51-2.8,2.34-4.64,5.23-5.53,8.68-.56,2.25-.83,6.37-.83,12.36v16.66h-5.84v-45.42Z" style="fill: #d6df1c;"/>
    <path d="m294.31,26.73h5.84v35.87l21.06-18.33h8.58l-24.97,21.67,26.43,23.76h-8.23l-22.88-20.45v20.45h-5.84V26.73Z" style="fill: #d6df1c;"/>
    <path d="m330.49,25.56c1.33,0,2.47.47,3.41,1.42.94.95,1.41,2.09,1.41,3.42s-.47,2.44-1.41,3.38c-.94.95-2.08,1.42-3.41,1.42s-2.43-.47-3.37-1.42c-.94-.95-1.41-2.07-1.41-3.38s.47-2.48,1.41-3.42c.94-.95,2.06-1.42,3.37-1.42Zm-2.9,18.7h5.84v45.42h-5.84v-45.42Z" style="fill: #d6df1c;"/>
    <path d="m336.78,44.27h5.84v8.14c2.34-3.12,4.93-5.45,7.77-6.99s5.93-2.32,9.27-2.32,6.41.86,9.04,2.59c2.63,1.73,4.57,4.05,5.82,6.97s1.88,7.47,1.88,13.65v23.38h-5.84v-21.67c0-5.23-.22-8.73-.65-10.48-.68-3.01-1.98-5.27-3.9-6.78-1.92-1.52-4.43-2.28-7.52-2.28-3.54,0-6.7,1.17-9.5,3.51-2.8,2.34-4.64,5.23-5.53,8.68-.56,2.25-.83,6.37-.83,12.36v16.66h-5.84v-45.42Z" style="fill: #d6df1c;"/>
    <path d="m419.27,44.27h5.84v36.2c0,6.37-.56,11.04-1.67,13.99-1.53,4.17-4.19,7.39-7.97,9.64-3.79,2.25-8.34,3.38-13.65,3.38-3.9,0-7.4-.55-10.5-1.65-3.1-1.1-5.63-2.58-7.58-4.44-1.95-1.86-3.74-4.57-5.39-8.14h6.35c1.73,3.01,3.96,5.23,6.69,6.68,2.73,1.45,6.12,2.17,10.16,2.17s7.35-.74,10.09-2.23c2.75-1.48,4.7-3.35,5.87-5.6,1.17-2.25,1.76-5.87,1.76-10.88v-2.34c-2.2,2.78-4.89,4.92-8.07,6.41-3.18,1.49-6.55,2.23-10.11,2.23-4.18,0-8.11-1.04-11.79-3.11-3.68-2.07-6.52-4.86-8.53-8.37s-3.01-7.36-3.01-11.56,1.04-8.12,3.13-11.75c2.09-3.63,4.98-6.51,8.67-8.62,3.69-2.12,7.58-3.17,11.68-3.17,3.4,0,6.57.7,9.51,2.11,2.94,1.41,5.77,3.72,8.51,6.95v-7.89Zm-17.24,4.47c-3.31,0-6.39.8-9.23,2.4-2.84,1.6-5.07,3.81-6.68,6.64-1.61,2.83-2.42,5.88-2.42,9.16,0,4.98,1.67,9.1,5.01,12.36s7.67,4.88,12.98,4.88,9.69-1.61,12.96-4.84c3.27-3.23,4.91-7.47,4.91-12.73,0-3.42-.75-6.48-2.25-9.16-1.5-2.69-3.63-4.81-6.39-6.37-2.76-1.56-5.72-2.34-8.89-2.34Z" style="fill: #d6df1c;"/>
  </g>
  <path d="m460,64.74V0h-64.74c21.58,21.58,43.16,43.16,64.74,64.74Z" style="fill: #fff;"/>
  <path d="m460,60.03V.55h-59.48c19.83,19.83,39.66,39.66,59.48,59.48Z" style="fill: #d6df1c;"/>
</svg>