<?xml version="1.0" encoding="UTF-8"?>
<svg id="Layer_1" data-name="Layer 1" xmlns="http://www.w3.org/2000/svg" width="6.33in" height="1.06in" viewBox="0 0 456 76.57">
  <g>
    <g>
      <path d="m65.91,35.69l5.09-.52c.31,1.86.92,3.22,1.85,4.09.94.87,2.19,1.3,3.77,1.3,1.68,0,2.94-.39,3.79-1.16.85-.77,1.27-1.68,1.27-2.72,0-.67-.18-1.23-.53-1.7-.36-.47-.98-.88-1.87-1.22-.61-.23-2-.64-4.16-1.23-2.78-.76-4.74-1.69-5.86-2.79-1.58-1.55-2.37-3.43-2.37-5.66,0-1.43.37-2.77,1.12-4.03.74-1.25,1.82-2.2,3.22-2.85,1.4-.65,3.09-.98,5.08-.98,3.24,0,5.67.78,7.31,2.33,1.64,1.56,2.5,3.63,2.58,6.23l-5.24.21c-.22-1.43-.7-2.47-1.43-3.1-.73-.63-1.83-.95-3.29-.95s-2.69.34-3.54,1.02c-.55.43-.82,1.01-.82,1.74,0,.66.26,1.23.78,1.7.65.6,2.25,1.22,4.78,1.88,2.53.65,4.4,1.33,5.62,2.03,1.21.7,2.16,1.66,2.85,2.88.69,1.22,1.03,2.72,1.03,4.51,0,1.62-.41,3.14-1.23,4.56-.82,1.41-1.99,2.47-3.49,3.15-1.5.69-3.38,1.03-5.62,1.03-3.27,0-5.78-.83-7.53-2.49-1.75-1.66-2.8-4.08-3.14-7.27" style="fill: #003616; fill-rule: evenodd;"/>
      <path d="m99.93,24.48v4.31h-3.37v8.3c0,1.68.03,2.66.09,2.94.06.28.2.51.43.69.22.18.49.27.82.27.45,0,1.1-.17,1.95-.52l.44,4.18c-1.15.54-2.44.81-3.89.81-.89,0-1.69-.17-2.4-.49-.71-.33-1.24-.75-1.57-1.27-.34-.52-.57-1.23-.69-2.12-.11-.64-.16-1.91-.16-3.83v-8.95h-2.29v-4.31h2.29v-4.05l4.98-3.16v7.21h3.37Z" style="fill: #003616; fill-rule: evenodd;"/>
      <path d="m113.73,35.22c-.64.23-1.64.51-3.02.83-1.38.32-2.28.63-2.7.94-.65.5-.97,1.13-.97,1.9s.26,1.4.78,1.95c.52.55,1.18.83,1.98.83.9,0,1.75-.32,2.56-.96.6-.48,1-1.08,1.19-1.78.13-.46.19-1.33.19-2.62v-1.07Zm-6.7-4.41l-4.46-.88c.51-1.99,1.38-3.47,2.62-4.43,1.24-.96,3.08-1.44,5.52-1.44,2.22,0,3.86.28,4.95.85,1.08.57,1.85,1.29,2.29,2.17.44.88.66,2.49.66,4.83l-.05,6.3c0,1.79.08,3.12.24,3.97.16.85.46,1.76.9,2.74h-4.93c-.13-.35-.29-.87-.48-1.56-.08-.31-.14-.52-.18-.62-.85.9-1.75,1.57-2.72,2.03-.97.45-2,.67-3.09.67-1.93,0-3.46-.57-4.57-1.71-1.11-1.14-1.67-2.58-1.67-4.32,0-1.15.25-2.18.76-3.08.51-.9,1.22-1.59,2.13-2.07.91-.48,2.23-.9,3.95-1.26,2.32-.47,3.93-.91,4.83-1.32v-.55c0-1.05-.24-1.81-.71-2.25-.48-.45-1.37-.67-2.69-.67-.89,0-1.58.19-2.08.58-.5.38-.9,1.06-1.21,2.02" style="fill: #003616; fill-rule: evenodd;"/>
      <path d="m140.48,44.93h-4.98v-10.4c0-2.2-.11-3.62-.32-4.27-.21-.65-.55-1.15-1.02-1.5-.47-.36-1.04-.54-1.71-.54-.85,0-1.62.25-2.3.77-.67.51-1.14,1.19-1.39,2.03-.25.84-.38,2.41-.38,4.68v9.23h-4.98v-20.45h4.62v3c1.63-2.27,3.69-3.41,6.17-3.41,1.09,0,2.09.21,3,.64.91.43,1.59.97,2.05,1.64.46.66.78,1.42.97,2.27.18.85.27,2.06.27,3.63v12.68Z" style="fill: #003616; fill-rule: evenodd;"/>
      <path d="m149.53,34.33c0,2.18.28,3.77.83,4.74.8,1.41,1.92,2.12,3.36,2.12,1.14,0,2.12-.53,2.92-1.59.8-1.06,1.2-2.65,1.2-4.75,0-2.35-.39-4.04-1.17-5.08-.78-1.03-1.77-1.55-2.99-1.55s-2.16.51-2.96,1.53c-.8,1.02-1.19,2.55-1.19,4.58m13.23,10.6h-4.62v-3c-.76,1.17-1.67,2.04-2.71,2.63-1.04.59-2.09.88-3.15.88-2.15,0-4-.95-5.53-2.84-1.54-1.9-2.3-4.54-2.3-7.93s.74-6.1,2.24-7.91c1.49-1.8,3.38-2.7,5.66-2.7,2.09,0,3.91.95,5.43,2.84v-10.16h4.98v28.18Z" style="fill: #003616; fill-rule: evenodd;"/>
      <path d="m177.99,35.22c-.64.23-1.65.51-3.02.83-1.38.32-2.28.63-2.7.94-.65.5-.97,1.13-.97,1.9s.26,1.4.78,1.95c.52.55,1.18.83,1.98.83.9,0,1.75-.32,2.56-.96.6-.48.99-1.08,1.18-1.78.13-.46.2-1.33.2-2.62v-1.07Zm-6.7-4.41l-4.46-.88c.51-1.99,1.38-3.47,2.62-4.43,1.24-.96,3.08-1.44,5.52-1.44,2.22,0,3.86.28,4.95.85,1.08.57,1.85,1.29,2.29,2.17.44.88.66,2.49.66,4.83l-.05,6.3c0,1.79.08,3.12.24,3.97.16.85.46,1.76.9,2.74h-4.93c-.13-.35-.29-.87-.48-1.56-.08-.31-.14-.52-.17-.62-.85.9-1.76,1.57-2.72,2.03-.97.45-2,.67-3.09.67-1.93,0-3.46-.57-4.57-1.71-1.12-1.14-1.67-2.58-1.67-4.32,0-1.15.25-2.18.76-3.08.5-.9,1.21-1.59,2.13-2.07.91-.48,2.23-.9,3.95-1.26,2.32-.47,3.94-.91,4.83-1.32v-.55c0-1.05-.24-1.81-.71-2.25-.48-.45-1.37-.67-2.69-.67-.89,0-1.59.19-2.08.58-.5.38-.9,1.06-1.21,2.02" style="fill: #003616; fill-rule: evenodd;"/>
      <path d="m192.49,44.93h-4.98v-20.45h4.62v2.9c.79-1.37,1.5-2.26,2.12-2.69.63-.42,1.34-.63,2.14-.63,1.13,0,2.22.34,3.26,1.01l-1.53,4.7c-.83-.59-1.61-.88-2.32-.88s-1.28.21-1.76.63c-.48.42-.86,1.17-1.14,2.26-.28,1.09-.41,3.37-.41,6.85v6.31Z" style="fill: #003616; fill-rule: evenodd;"/>
      <path d="m205.78,34.33c0,2.18.28,3.77.83,4.74.8,1.41,1.92,2.12,3.36,2.12,1.14,0,2.11-.53,2.91-1.59.8-1.06,1.2-2.65,1.2-4.75,0-2.35-.39-4.04-1.17-5.08-.77-1.03-1.77-1.55-2.98-1.55s-2.16.51-2.96,1.53c-.79,1.02-1.19,2.55-1.19,4.58m13.23,10.6h-4.62v-3c-.77,1.17-1.67,2.04-2.71,2.63-1.04.59-2.09.88-3.15.88-2.16,0-4-.95-5.54-2.84-1.54-1.9-2.31-4.54-2.31-7.93s.75-6.1,2.24-7.91c1.5-1.8,3.38-2.7,5.67-2.7,2.09,0,3.9.95,5.43,2.84v-10.16h4.98v28.18Z" style="fill: #003616; fill-rule: evenodd;"/>
      <path d="m239.25,32.63v7.53h4.81c1.87,0,3.06-.06,3.57-.17.77-.16,1.4-.53,1.89-1.13.49-.6.73-1.39.73-2.39,0-.85-.19-1.56-.56-2.15-.38-.59-.92-1.02-1.63-1.29-.71-.27-2.25-.4-4.61-.4h-4.2Zm0-11.21v6.54h3.39c2.02,0,3.27-.03,3.77-.1.89-.11,1.59-.45,2.09-1.01.51-.56.76-1.3.76-2.21s-.22-1.59-.66-2.13c-.44-.55-1.09-.88-1.95-1-.51-.06-1.99-.09-4.43-.09h-2.98Zm-5.24-4.67h10.31c2.04,0,3.56.09,4.56.28,1.01.18,1.9.57,2.69,1.16.79.59,1.45,1.38,1.98,2.36.53.98.79,2.08.79,3.29,0,1.32-.33,2.53-.97,3.63-.65,1.1-1.53,1.93-2.64,2.48,1.58.5,2.79,1.35,3.63,2.56.85,1.21,1.27,2.62,1.27,4.25,0,1.28-.27,2.53-.82,3.74-.55,1.21-1.3,2.18-2.24,2.9-.95.72-2.11,1.17-3.5,1.34-.87.1-2.97.17-6.29.19h-8.79v-28.18Z" style="fill: #003616; fill-rule: evenodd;"/>
      <path d="m270.38,35.22c-.64.23-1.64.51-3.02.83-1.38.32-2.28.63-2.7.94-.65.5-.97,1.13-.97,1.9s.26,1.4.78,1.95c.52.55,1.18.83,1.98.83.89,0,1.75-.32,2.56-.96.6-.48.99-1.08,1.18-1.78.13-.46.2-1.33.2-2.62v-1.07Zm-6.7-4.41l-4.47-.88c.51-1.99,1.38-3.47,2.62-4.43,1.24-.96,3.07-1.44,5.51-1.44,2.22,0,3.87.28,4.95.85,1.09.57,1.85,1.29,2.29,2.17.45.88.67,2.49.67,4.83l-.05,6.3c0,1.79.08,3.12.24,3.97.16.85.46,1.76.9,2.74h-4.93c-.13-.35-.29-.87-.48-1.56-.08-.31-.14-.52-.18-.62-.85.9-1.76,1.57-2.72,2.03-.97.45-2,.67-3.09.67-1.93,0-3.46-.57-4.57-1.71-1.11-1.14-1.67-2.58-1.67-4.32,0-1.15.25-2.18.76-3.08.51-.9,1.22-1.59,2.13-2.07.92-.48,2.23-.9,3.95-1.26,2.32-.47,3.93-.91,4.83-1.32v-.55c0-1.05-.24-1.81-.71-2.25-.47-.45-1.37-.67-2.69-.67-.89,0-1.58.19-2.08.58-.5.38-.9,1.06-1.21,2.02" style="fill: #003616; fill-rule: evenodd;"/>
      <path d="m297.13,44.93h-4.98v-10.4c0-2.2-.1-3.62-.32-4.27-.21-.65-.55-1.15-1.02-1.5-.47-.36-1.04-.54-1.71-.54-.85,0-1.62.25-2.29.77-.68.51-1.14,1.19-1.39,2.03-.25.84-.38,2.41-.38,4.68v9.23h-4.98v-20.45h4.62v3c1.63-2.27,3.69-3.41,6.17-3.41,1.09,0,2.09.21,3,.64.9.43,1.59.97,2.05,1.64.46.66.79,1.42.97,2.27.18.85.27,2.06.27,3.63v12.68Z" style="fill: #003616; fill-rule: evenodd;"/>
      <polygon points="302.03 44.93 302.03 16.75 307.01 16.75 307.01 31.68 312.8 24.48 318.92 24.48 312.5 31.98 319.39 44.93 314.04 44.93 309.28 35.74 307.01 38.39 307.01 44.93 302.03 44.93" style="fill: #003616; fill-rule: evenodd;"/>
      <polygon points="332.49 44.93 332.49 17.01 337.72 17.01 337.72 40.16 350.75 40.16 350.75 44.93 332.49 44.93" style="fill: #003616; fill-rule: evenodd;"/>
      <path d="m354.36,24.48h4.98v20.44h-4.98v-20.44Zm0-7.73h4.98v4.98h-4.98v-4.98Z" style="fill: #003616; fill-rule: evenodd;"/>
      <path d="m364.09,24.48h4.56v2.79c1.64-2.13,3.6-3.2,5.87-3.2,1.21,0,2.25.27,3.14.81.89.54,1.62,1.36,2.19,2.45.82-1.09,1.71-1.91,2.67-2.45.96-.54,1.98-.81,3.07-.81,1.38,0,2.55.3,3.5.91.95.61,1.67,1.5,2.14,2.68.34.87.51,2.28.51,4.23v13.04h-4.98v-11.65c0-2.02-.17-3.32-.51-3.91-.46-.76-1.17-1.15-2.12-1.15-.7,0-1.35.23-1.96.69-.61.46-1.05,1.14-1.33,2.03-.27.89-.4,2.29-.4,4.21v9.78h-4.98v-11.16c0-1.98-.09-3.26-.27-3.84-.18-.57-.45-1-.82-1.28-.37-.28-.87-.42-1.51-.42-.77,0-1.46.23-2.07.67-.61.45-1.05,1.09-1.32,1.94-.27.84-.4,2.24-.4,4.2v9.9h-4.98v-20.45Z" style="fill: #003616; fill-rule: evenodd;"/>
      <path d="m396.54,24.48h4.98v20.44h-4.98v-20.44Zm0-7.73h4.98v4.98h-4.98v-4.98Z" style="fill: #003616; fill-rule: evenodd;"/>
      <path d="m415.25,24.48v4.31h-3.37v8.3c0,1.68.03,2.66.09,2.94.07.28.21.51.43.69.22.18.5.27.82.27.45,0,1.1-.17,1.95-.52l.44,4.18c-1.15.54-2.44.81-3.9.81-.89,0-1.69-.17-2.4-.49-.71-.33-1.24-.75-1.57-1.27-.33-.52-.56-1.23-.69-2.12-.11-.64-.16-1.91-.16-3.83v-8.95h-2.29v-4.31h2.29v-4.05l4.98-3.16v7.21h3.37Z" style="fill: #003616; fill-rule: evenodd;"/>
      <path d="m429.83,33c-.04-1.56-.41-2.75-1.12-3.56-.71-.82-1.57-1.22-2.58-1.22-1.09,0-1.98.43-2.69,1.28-.71.85-1.06,2.02-1.04,3.49h7.44Zm-.26,5.5l4.93.88c-.64,1.98-1.64,3.49-3.02,4.52-1.37,1.03-3.09,1.55-5.15,1.55-3.27,0-5.68-1.16-7.25-3.49-1.24-1.86-1.86-4.21-1.86-7.05,0-3.39.82-6.04,2.44-7.96,1.63-1.92,3.68-2.88,6.17-2.88,2.79,0,5,1,6.61,3.01,1.62,2.01,2.39,5.08,2.32,9.23h-12.45c.03,1.61.44,2.85,1.21,3.75.77.89,1.73,1.34,2.88,1.34.78,0,1.43-.23,1.97-.69.54-.46.94-1.2,1.21-2.22" style="fill: #003616; fill-rule: evenodd;"/>
      <path d="m442.76,34.33c0,2.18.28,3.77.83,4.74.8,1.41,1.92,2.12,3.36,2.12,1.14,0,2.11-.53,2.91-1.59.8-1.06,1.2-2.65,1.2-4.75,0-2.35-.39-4.04-1.17-5.08-.78-1.03-1.77-1.55-2.99-1.55s-2.16.51-2.96,1.53c-.8,1.02-1.19,2.55-1.19,4.58m13.23,10.6h-4.62v-3c-.77,1.17-1.67,2.04-2.71,2.63-1.04.59-2.09.88-3.15.88-2.15,0-4-.95-5.53-2.84-1.54-1.9-2.31-4.54-2.31-7.93s.75-6.1,2.24-7.91c1.49-1.8,3.38-2.7,5.67-2.7,2.09,0,3.9.95,5.43,2.84v-10.16h4.98v28.18Z" style="fill: #003616; fill-rule: evenodd;"/>
    </g>
    <g>
      <path d="m13.25,27.74c.88.6,3.92,2.49,6.62,2.21,2.72-.3,2.61-1.81,2.46-2.45-.26-.3-.8-.68-1.71-.45v2.25s-1.71.6-3.79-.23v-3.98h7.2s2.27.32,1.81,2.91c-.22,1.06-1.17,3.29-5.03,3.41-.68.04-3.81-.27-6.69-2.54-.24-.18-.75-.7-1-1.05-.07-.09-.03-.14.04-.1l.08.05Z" style="fill: #5a0000; fill-rule: evenodd;"/>
      <path d="m16.83,36.53v-5.69s1.67.88,3.79.88v2.88c-.04.3,2.58-.23,2.13-2.91.38-.08,2.3-.72,2.69-1.78.34.07,2.15,1.32,1.14,3.93-.27.79-1.25,2.65-3.64,2.69h-6.1Z" style="fill: #5a0000; fill-rule: evenodd;"/>
      <path d="m26.92,25.23h4.29v6.2h3.67v5.14h-7.97v-1.53s1.68-2.69,0-4.89v-4.92Z" style="fill: #f80; fill-rule: evenodd;"/>
      <path d="m13.06,27.41c.6.39,1.82,1.03,2.76,1.3v-3.64h-1.89l10.63-10.89s6.84-1.7,8.73,2.99c.42,1.4.65,3.18-1.09,3.78-.03-.79-.51-4.08-4.35-2.91-1.62.51-2.19,2.58-1.77,3.6.29.85,1.92,3.51,5.85,2.75.95-.15,5.9-.87,6.32-5.9.04-.95-.25-4.07-3.03-7.03-.41-.42-8.99-10.81-8.99-10.81l-.6-.65L0,25.17v11.22h15.76v-6.03s-2.64-1.52-2.9-2.79c0,0-.03-.27.21-.17" style="fill: #003616; fill-rule: evenodd;"/>
      <path d="m35.91,25.26h16.22v11.54l-25.49,24.88-9.76-11.5s-4.91-5.07-2.04-9.99c1.3-2.39,6.81-4.54,10.21-1.81,1.03.7,2.46,3.7-.24,5.23-1.24.57-4.37.7-4.68-2.78-2.42.18-2.87,8.85,7.62,6.69.71-.76,10.49-10.85,10.49-10.85h-2.33v-11.41Z" style="fill: #003616; fill-rule: evenodd;"/>
    </g>
  </g>
  <g>
    <path d="m128.98,71.34l1.93-.17c.09.77.3,1.41.64,1.9.33.5.85.9,1.55,1.2s1.49.46,2.37.46c.78,0,1.47-.12,2.07-.35s1.04-.55,1.33-.95c.29-.4.44-.84.44-1.32s-.14-.91-.42-1.27c-.28-.36-.74-.67-1.39-.91-.41-.16-1.33-.41-2.75-.75-1.42-.34-2.41-.66-2.98-.96-.74-.39-1.29-.87-1.65-1.44-.36-.57-.54-1.21-.54-1.92,0-.78.22-1.51.66-2.19.44-.68,1.09-1.19,1.94-1.54.85-.35,1.79-.53,2.83-.53,1.14,0,2.15.18,3.03.55.87.37,1.55.91,2.02,1.63.47.72.72,1.53.76,2.43l-1.96.15c-.11-.98-.46-1.71-1.07-2.21-.61-.5-1.5-.75-2.69-.75s-2.14.23-2.7.68c-.57.45-.85,1-.85,1.64,0,.56.2,1.01.6,1.37.39.36,1.42.73,3.08,1.1,1.66.38,2.8.7,3.42.99.9.41,1.56.94,1.99,1.57.43.64.64,1.37.64,2.2s-.24,1.6-.71,2.32c-.47.73-1.15,1.29-2.03,1.7-.88.4-1.87.61-2.98.61-1.4,0-2.57-.2-3.51-.61-.95-.41-1.69-1.02-2.22-1.84-.54-.82-.82-1.74-.85-2.78Z" style="fill: #5a0000;"/>
    <path d="m143.83,76.31v-15.45h1.9v5.54c.89-1.03,2-1.54,3.35-1.54.83,0,1.55.16,2.16.49.61.33,1.05.78,1.31,1.35.26.58.39,1.41.39,2.51v7.09h-1.9v-7.09c0-.95-.21-1.64-.62-2.07-.41-.43-.99-.65-1.74-.65-.56,0-1.09.15-1.59.44-.5.29-.85.69-1.06,1.19-.21.5-.32,1.19-.32,2.07v6.12h-1.9Z" style="fill: #5a0000;"/>
    <path d="m163.13,74.93c-.7.6-1.38,1.02-2.03,1.26-.65.25-1.35.37-2.09.37-1.23,0-2.17-.3-2.83-.9-.66-.6-.99-1.37-.99-2.3,0-.55.12-1.05.37-1.5.25-.45.58-.82.98-1.09.4-.27.86-.48,1.36-.62.37-.1.93-.19,1.69-.28,1.53-.18,2.66-.4,3.38-.65,0-.26.01-.42.01-.5,0-.77-.18-1.32-.54-1.63-.48-.43-1.2-.64-2.16-.64-.89,0-1.55.16-1.98.47-.43.31-.74.87-.94,1.66l-1.85-.25c.17-.79.45-1.43.83-1.92.39-.49.94-.86,1.67-1.13.73-.26,1.58-.4,2.54-.4s1.73.11,2.33.34c.6.23,1.04.51,1.32.85.28.34.48.77.59,1.29.06.32.09.91.09,1.75v2.53c0,1.76.04,2.88.12,3.34.08.47.24.92.48,1.34h-1.98c-.2-.39-.32-.85-.38-1.38Zm-.16-4.24c-.69.28-1.72.52-3.1.72-.78.11-1.33.24-1.65.38-.32.14-.57.35-.75.62-.18.27-.26.57-.26.9,0,.51.19.93.57,1.26.38.34.94.51,1.68.51s1.38-.16,1.95-.48.99-.76,1.25-1.31c.2-.43.31-1.06.31-1.9v-.7Z" style="fill: #5a0000;"/>
    <path d="m167.81,76.31v-11.19h1.71v1.7c.44-.79.84-1.32,1.21-1.57.37-.25.77-.38,1.22-.38.64,0,1.29.2,1.95.61l-.65,1.76c-.46-.27-.93-.41-1.39-.41-.41,0-.79.12-1.12.37-.33.25-.57.6-.71,1.04-.21.67-.32,1.41-.32,2.21v5.86h-1.9Z" style="fill: #5a0000;"/>
    <path d="m175.03,63.04v-2.18h1.9v2.18h-1.9Zm0,13.27v-11.19h1.9v11.19h-1.9Z" style="fill: #5a0000;"/>
    <path d="m192.11,74.93c-.7.6-1.38,1.02-2.03,1.26-.65.25-1.35.37-2.09.37-1.23,0-2.17-.3-2.83-.9-.66-.6-.99-1.37-.99-2.3,0-.55.12-1.05.37-1.5.25-.45.58-.82.98-1.09.4-.27.86-.48,1.36-.62.37-.1.93-.19,1.69-.28,1.53-.18,2.66-.4,3.38-.65,0-.26.01-.42.01-.5,0-.77-.18-1.32-.54-1.63-.48-.43-1.2-.64-2.16-.64-.89,0-1.55.16-1.98.47-.43.31-.74.87-.94,1.66l-1.85-.25c.17-.79.45-1.43.83-1.92.39-.49.94-.86,1.67-1.13.73-.26,1.58-.4,2.54-.4s1.73.11,2.33.34c.6.23,1.04.51,1.32.85.28.34.48.77.59,1.29.06.32.09.91.09,1.75v2.53c0,1.76.04,2.88.12,3.34.08.47.24.92.48,1.34h-1.98c-.2-.39-.32-.85-.38-1.38Zm-.16-4.24c-.69.28-1.72.52-3.1.72-.78.11-1.33.24-1.65.38-.32.14-.57.35-.75.62-.18.27-.26.57-.26.9,0,.51.19.93.57,1.26.38.34.94.51,1.68.51s1.38-.16,1.95-.48.99-.76,1.25-1.31c.2-.43.31-1.06.31-1.9v-.7Z" style="fill: #5a0000;"/>
    <path d="m196.81,76.31v-15.45h1.9v5.54c.89-1.03,2-1.54,3.35-1.54.83,0,1.55.16,2.16.49.61.33,1.05.78,1.31,1.35.26.58.4,1.41.4,2.51v7.09h-1.9v-7.09c0-.95-.21-1.64-.62-2.07-.41-.43-.99-.65-1.74-.65-.56,0-1.09.15-1.59.44-.5.29-.85.69-1.06,1.19-.21.5-.32,1.19-.32,2.07v6.12h-1.9Z" style="fill: #5a0000;"/>
    <path d="m216.97,76.31v-15.45h5.8c1.18,0,2.13.16,2.84.47.71.31,1.27.79,1.68,1.44.4.65.61,1.33.61,2.04,0,.66-.18,1.28-.54,1.87-.36.58-.9,1.05-1.62,1.41.93.27,1.65.74,2.15,1.4.5.66.75,1.44.75,2.34,0,.72-.15,1.4-.46,2.02-.31.62-.68,1.1-1.13,1.44-.45.34-1.01.59-1.69.76-.68.17-1.51.26-2.49.26h-5.89Zm2.04-8.96h3.34c.91,0,1.56-.06,1.95-.18.52-.15.91-.41,1.17-.77.26-.36.39-.81.39-1.35s-.12-.96-.37-1.35c-.25-.39-.6-.66-1.05-.8-.46-.14-1.24-.22-2.35-.22h-3.09v4.67Zm0,7.13h3.85c.66,0,1.12-.02,1.39-.07.47-.08.86-.22,1.18-.42.32-.2.58-.48.78-.86.2-.38.31-.81.31-1.3,0-.58-.15-1.08-.44-1.5-.29-.42-.7-.72-1.23-.9-.52-.17-1.28-.26-2.26-.26h-3.57v5.31Z" style="fill: #5a0000;"/>
    <path d="m238.5,74.93c-.7.6-1.38,1.02-2.03,1.26-.65.25-1.35.37-2.09.37-1.23,0-2.17-.3-2.83-.9-.66-.6-.99-1.37-.99-2.3,0-.55.12-1.05.37-1.5.25-.45.58-.82.98-1.09.4-.27.86-.48,1.36-.62.37-.1.93-.19,1.69-.28,1.53-.18,2.66-.4,3.38-.65,0-.26.01-.42.01-.5,0-.77-.18-1.32-.54-1.63-.48-.43-1.2-.64-2.16-.64-.89,0-1.55.16-1.98.47-.43.31-.74.87-.94,1.66l-1.85-.25c.17-.79.45-1.43.83-1.92.39-.49.94-.86,1.67-1.13.73-.26,1.58-.4,2.54-.4s1.73.11,2.33.34c.6.23,1.04.51,1.32.85.28.34.48.77.59,1.29.06.32.09.91.09,1.75v2.53c0,1.76.04,2.88.12,3.34.08.47.24.92.48,1.34h-1.98c-.2-.39-.32-.85-.38-1.38Zm-.16-4.24c-.69.28-1.72.52-3.1.72-.78.11-1.33.24-1.65.38-.32.14-.57.35-.75.62-.18.27-.26.57-.26.9,0,.51.19.93.57,1.26.38.34.94.51,1.68.51s1.38-.16,1.95-.48.99-.76,1.25-1.31c.2-.43.31-1.06.31-1.9v-.7Z" style="fill: #5a0000;"/>
    <path d="m242.44,72.97l1.88-.3c.11.75.4,1.33.88,1.73.48.4,1.15.6,2.02.6s1.52-.18,1.94-.53c.42-.35.63-.77.63-1.25,0-.43-.19-.77-.56-1.01-.26-.17-.91-.38-1.94-.64-1.39-.35-2.36-.65-2.89-.91-.54-.26-.94-.61-1.22-1.06-.28-.45-.42-.95-.42-1.5,0-.5.11-.96.34-1.39.23-.42.54-.78.93-1.06.29-.22.7-.4,1.21-.55.51-.15,1.06-.23,1.64-.23.88,0,1.65.13,2.31.38.66.25,1.15.6,1.47,1.03.32.43.53,1.01.65,1.73l-1.85.25c-.08-.58-.33-1.03-.73-1.35-.4-.32-.97-.48-1.71-.48-.87,0-1.49.14-1.86.43-.37.29-.56.63-.56,1.01,0,.25.08.47.23.66.15.2.4.37.73.51.19.07.75.23,1.68.48,1.34.36,2.28.65,2.81.88.53.23.95.56,1.25,1,.3.44.45.98.45,1.62s-.18,1.23-.55,1.79c-.37.56-.9.99-1.6,1.3s-1.48.46-2.36.46c-1.45,0-2.56-.3-3.32-.91-.76-.6-1.25-1.5-1.46-2.69Z" style="fill: #5a0000;"/>
    <path d="m261.65,72.7l1.96.24c-.31,1.15-.88,2.03-1.72,2.67-.84.63-1.9.95-3.2.95-1.64,0-2.93-.5-3.89-1.51-.96-1.01-1.44-2.42-1.44-4.24s.48-3.34,1.45-4.38c.97-1.04,2.23-1.56,3.77-1.56s2.72.51,3.67,1.53c.95,1.02,1.42,2.45,1.42,4.3,0,.11,0,.28-.01.51h-8.35c.07,1.23.42,2.17,1.04,2.82.62.65,1.4.98,2.34.98.7,0,1.29-.18,1.78-.55.49-.36.88-.95,1.17-1.75Zm-6.23-3.07h6.25c-.08-.94-.32-1.65-.72-2.12-.6-.73-1.39-1.1-2.35-1.1-.87,0-1.6.29-2.2.87-.59.58-.92,1.36-.99,2.34Z" style="fill: #5a0000;"/>
    <path d="m273.25,76.31v-1.41c-.71,1.11-1.75,1.66-3.13,1.66-.89,0-1.71-.25-2.46-.74-.75-.49-1.33-1.18-1.74-2.06-.41-.88-.62-1.89-.62-3.04s.19-2.13.56-3.04c.37-.91.93-1.61,1.68-2.09.74-.48,1.58-.73,2.5-.73.67,0,1.28.14,1.8.43.53.28.96.66,1.29,1.11v-5.54h1.89v15.45h-1.76Zm-6-5.58c0,1.43.3,2.5.91,3.21.6.71,1.32,1.06,2.14,1.06s1.53-.34,2.11-1.02c.58-.68.87-1.71.87-3.1,0-1.53-.29-2.66-.88-3.37-.59-.72-1.32-1.07-2.18-1.07s-1.55.34-2.11,1.03c-.57.69-.85,1.77-.85,3.26Z" style="fill: #5a0000;"/>
    <path d="m284.58,76.31v-15.45h2.04v15.45h-2.04Z" style="fill: #5a0000;"/>
    <path d="m289.23,72.97l1.88-.3c.11.75.4,1.33.88,1.73.48.4,1.15.6,2.02.6s1.52-.18,1.94-.53c.42-.35.63-.77.63-1.25,0-.43-.19-.77-.56-1.01-.26-.17-.91-.38-1.94-.64-1.39-.35-2.36-.65-2.89-.91-.54-.26-.94-.61-1.22-1.06-.28-.45-.42-.95-.42-1.5,0-.5.11-.96.34-1.39.23-.42.54-.78.93-1.06.29-.22.7-.4,1.21-.55.51-.15,1.06-.23,1.64-.23.88,0,1.65.13,2.31.38.66.25,1.15.6,1.47,1.03.32.43.53,1.01.65,1.73l-1.85.25c-.08-.58-.33-1.03-.73-1.35-.4-.32-.97-.48-1.71-.48-.87,0-1.49.14-1.86.43-.37.29-.56.63-.56,1.01,0,.25.08.47.23.66.15.2.4.37.73.51.19.07.75.23,1.68.48,1.34.36,2.28.65,2.81.88.53.23.95.56,1.25,1,.3.44.45.98.45,1.62s-.18,1.23-.55,1.79c-.37.56-.9.99-1.6,1.3-.7.31-1.48.46-2.36.46-1.45,0-2.56-.3-3.32-.91-.76-.6-1.25-1.5-1.46-2.69Z" style="fill: #5a0000;"/>
    <path d="m300.73,76.31v-15.45h1.9v15.45h-1.9Z" style="fill: #5a0000;"/>
    <path d="m312.87,74.93c-.7.6-1.38,1.02-2.03,1.26-.65.25-1.35.37-2.09.37-1.23,0-2.17-.3-2.83-.9-.66-.6-.99-1.37-.99-2.3,0-.55.12-1.05.37-1.5.25-.45.58-.82.98-1.09.4-.27.86-.48,1.36-.62.37-.1.93-.19,1.69-.28,1.53-.18,2.66-.4,3.38-.65,0-.26.01-.42.01-.5,0-.77-.18-1.32-.54-1.63-.48-.43-1.2-.64-2.16-.64-.89,0-1.55.16-1.98.47-.43.31-.74.87-.94,1.66l-1.85-.25c.17-.79.45-1.43.83-1.92.39-.49.94-.86,1.67-1.13.73-.26,1.58-.4,2.54-.4s1.73.11,2.33.34c.6.23,1.04.51,1.32.85.28.34.48.77.59,1.29.06.32.09.91.09,1.75v2.53c0,1.76.04,2.88.12,3.34.08.47.24.92.48,1.34h-1.98c-.2-.39-.32-.85-.38-1.38Zm-.16-4.24c-.69.28-1.72.52-3.1.72-.78.11-1.33.24-1.65.38-.32.14-.57.35-.75.62-.18.27-.26.57-.26.9,0,.51.19.93.57,1.26.38.34.94.51,1.68.51s1.38-.16,1.95-.48.99-.76,1.25-1.31c.2-.43.31-1.06.31-1.9v-.7Z" style="fill: #5a0000;"/>
    <path d="m317.57,76.31v-11.19h1.7v1.57c.35-.55.82-.99,1.4-1.32.58-.33,1.25-.5,1.99-.5.83,0,1.51.17,2.04.52.53.34.9.83,1.12,1.44.89-1.31,2.04-1.96,3.46-1.96,1.11,0,1.96.31,2.56.92.6.61.9,1.56.9,2.84v7.68h-1.89v-7.05c0-.76-.06-1.3-.18-1.64-.12-.33-.35-.6-.67-.81-.32-.2-.7-.31-1.14-.31-.79,0-1.44.26-1.96.78-.52.52-.78,1.36-.78,2.51v6.5h-1.9v-7.27c0-.84-.15-1.47-.46-1.9-.31-.42-.81-.63-1.52-.63-.53,0-1.03.14-1.48.42-.45.28-.78.69-.99,1.23-.2.54-.31,1.32-.31,2.34v5.81h-1.9Z" style="fill: #5a0000;"/>
    <path d="m335.55,63.04v-2.18h1.9v2.18h-1.9Zm0,13.27v-11.19h1.9v11.19h-1.9Z" style="fill: #5a0000;"/>
    <path d="m346.49,76.31v-15.45h5.8c1.18,0,2.13.16,2.84.47.71.31,1.27.79,1.68,1.44.4.65.61,1.33.61,2.04,0,.66-.18,1.28-.54,1.87-.36.58-.9,1.05-1.62,1.41.93.27,1.65.74,2.15,1.4.5.66.75,1.44.75,2.34,0,.72-.15,1.4-.46,2.02-.31.62-.68,1.1-1.13,1.44-.45.34-1.01.59-1.69.76-.68.17-1.51.26-2.49.26h-5.89Zm2.04-8.96h3.34c.91,0,1.56-.06,1.95-.18.52-.15.91-.41,1.17-.77.26-.36.39-.81.39-1.35s-.12-.96-.37-1.35c-.25-.39-.6-.66-1.05-.8-.46-.14-1.24-.22-2.35-.22h-3.09v4.67Zm0,7.13h3.85c.66,0,1.12-.02,1.39-.07.47-.08.86-.22,1.18-.42.32-.2.58-.48.78-.86.2-.38.31-.81.31-1.3,0-.58-.15-1.08-.44-1.5-.29-.42-.7-.72-1.23-.9-.52-.17-1.28-.26-2.26-.26h-3.57v5.31Z" style="fill: #5a0000;"/>
    <path d="m368.03,74.93c-.7.6-1.38,1.02-2.03,1.26-.65.25-1.35.37-2.09.37-1.23,0-2.17-.3-2.83-.9-.66-.6-.99-1.37-.99-2.3,0-.55.12-1.05.37-1.5.25-.45.58-.82.98-1.09.4-.27.86-.48,1.36-.62.37-.1.93-.19,1.69-.28,1.53-.18,2.66-.4,3.38-.65,0-.26.01-.42.01-.5,0-.77-.18-1.32-.54-1.63-.48-.43-1.2-.64-2.16-.64-.89,0-1.55.16-1.98.47-.43.31-.74.87-.94,1.66l-1.85-.25c.17-.79.45-1.43.83-1.92.39-.49.94-.86,1.67-1.13.73-.26,1.58-.4,2.54-.4s1.73.11,2.33.34c.6.23,1.04.51,1.32.85.28.34.48.77.59,1.29.06.32.09.91.09,1.75v2.53c0,1.76.04,2.88.12,3.34.08.47.24.92.48,1.34h-1.98c-.2-.39-.32-.85-.38-1.38Zm-.16-4.24c-.69.28-1.72.52-3.1.72-.78.11-1.33.24-1.65.38-.32.14-.57.35-.75.62-.18.27-.26.57-.26.9,0,.51.19.93.57,1.26.38.34.94.51,1.68.51s1.38-.16,1.95-.48.99-.76,1.25-1.31c.2-.43.31-1.06.31-1.9v-.7Z" style="fill: #5a0000;"/>
    <path d="m372.73,76.31v-11.19h1.71v1.59c.82-1.23,2.01-1.84,3.56-1.84.67,0,1.29.12,1.86.36.57.24.99.56,1.27.95.28.39.48.86.59,1.4.07.35.11.97.11,1.84v6.88h-1.9v-6.81c0-.77-.07-1.35-.22-1.73-.15-.38-.41-.69-.78-.92-.38-.23-.82-.34-1.32-.34-.81,0-1.5.26-2.09.77-.59.51-.88,1.49-.88,2.92v6.11h-1.9Z" style="fill: #5a0000;"/>
    <path d="m384.74,76.31v-15.45h1.9v8.81l4.49-4.55h2.45l-4.28,4.15,4.71,7.04h-2.34l-3.7-5.72-1.34,1.29v4.44h-1.9Z" style="fill: #5a0000;"/>
    <path d="m182.62,66.18c0,.45-.16.83-.48,1.15-.32.32-.71.48-1.18.48-.55,0-1.01-.23-1.36-.7-.36-.46-.54-.98-.54-1.55,0-.77.25-1.49.76-2.17.51-.68,1.13-1.16,1.86-1.44l.29.59c-1.03.68-1.59,1.5-1.66,2.46.3-.23.61-.35.91-.35.93,0,1.39.51,1.39,1.52Z" style="fill: #5a0000;"/>
  </g>
</svg>